<svg width="48" height="48" viewBox="0 0 48 48" fill="none" xmlns="http://www.w3.org/2000/svg">
<path d="M22.35 38.95L8.45 25.05C8.28333 24.8833 8.16667 24.7166 8.1 24.55C8.03333 24.3833 8 24.2 8 24C8 23.8 8.03333 23.6166 8.1 23.45C8.16667 23.2833 8.28333 23.1166 8.45 22.95L22.4 8.99998C22.6667 8.73331 23 8.59998 23.4 8.59998C23.8 8.59998 24.15 8.74998 24.45 9.04998C24.75 9.34998 24.9 9.69998 24.9 10.1C24.9 10.5 24.75 10.85 24.45 11.15L13.1 22.5H37.9C38.3333 22.5 38.6917 22.6416 38.975 22.925C39.2583 23.2083 39.4 23.5666 39.4 24C39.4 24.4333 39.2583 24.7916 38.975 25.075C38.6917 25.3583 38.3333 25.5 37.9 25.5H13.1L24.5 36.9C24.7667 37.1666 24.9 37.5 24.9 37.9C24.9 38.3 24.75 38.65 24.45 38.95C24.15 39.25 23.8 39.4 23.4 39.4C23 39.4 22.65 39.25 22.35 38.95Z" fill="#1D1D1D"/>
</svg>
