<svg width="48" height="48" viewBox="0 0 48 48" fill="none" xmlns="http://www.w3.org/2000/svg">
<path d="M14.35 40C13.8833 40 13.5 39.8167 13.2 39.45C12.9 39.0833 12.8167 38.6667 12.95 38.2L14.65 31.5H8.9C8.43333 31.5 8.04167 31.3083 7.725 30.925C7.40833 30.5417 7.31667 30.1167 7.45 29.65C7.51667 29.3167 7.68333 29.0417 7.95 28.825C8.21667 28.6083 8.53333 28.5 8.9 28.5H15.4L17.65 19.5H10.9C10.4333 19.5 10.0417 19.3083 9.725 18.925C9.40833 18.5417 9.31667 18.1167 9.45 17.65C9.51667 17.3167 9.68333 17.0417 9.95 16.825C10.2167 16.6083 10.5333 16.5 10.9 16.5H18.4L20.25 9.1C20.3167 8.76667 20.475 8.5 20.725 8.3C20.975 8.1 21.2667 8 21.6 8C22.0667 8 22.4417 8.18333 22.725 8.55C23.0083 8.91667 23.1 9.33333 23 9.8L21.35 16.5H30.4L32.25 9.1C32.3167 8.76667 32.475 8.5 32.725 8.3C32.975 8.1 33.2667 8 33.6 8C34.0667 8 34.4417 8.18333 34.725 8.55C35.0083 8.91667 35.1 9.33333 35 9.8L33.35 16.5H39.1C39.5667 16.5 39.9583 16.6917 40.275 17.075C40.5917 17.4583 40.6833 17.8833 40.55 18.35C40.4833 18.6833 40.3167 18.9583 40.05 19.175C39.7833 19.3917 39.4667 19.5 39.1 19.5H32.6L30.35 28.5H37.1C37.5667 28.5 37.9583 28.6917 38.275 29.075C38.5917 29.4583 38.6833 29.8833 38.55 30.35C38.4833 30.6833 38.3167 30.9583 38.05 31.175C37.7833 31.3917 37.4667 31.5 37.1 31.5H29.6L27.75 38.9C27.6833 39.1667 27.5417 39.4167 27.325 39.65C27.1083 39.8833 26.7833 40 26.35 40C25.8833 40 25.5 39.8167 25.2 39.45C24.9 39.0833 24.8167 38.6667 24.95 38.2L26.65 31.5H17.6L15.75 38.9C15.6833 39.1667 15.5417 39.4167 15.325 39.65C15.1083 39.8833 14.7833 40 14.35 40ZM18.35 28.5H27.4L29.65 19.5H20.6L18.35 28.5Z" fill="#1D1D1D"/>
</svg>
